<svg width="1314" height="762" viewBox="0 0 1314 762" fill="none" xmlns="http://www.w3.org/2000/svg">
<path d="M398.825 261.749C401.748 275.74 406.969 285.659 414.486 291.506C422.213 297.144 433.176 299.963 447.375 299.963C454.266 299.963 460.218 299.128 465.229 297.457C470.241 295.786 474.313 293.594 477.445 290.879C480.787 287.956 483.292 284.719 484.963 281.169C486.633 277.619 487.469 273.86 487.469 269.893C487.469 261.958 484.858 256.111 479.638 252.352C474.626 248.384 468.257 245.356 460.531 243.268C452.805 240.971 444.452 239.092 435.473 237.63C426.493 235.96 418.141 233.558 410.414 230.426C402.688 227.294 396.215 222.804 390.994 216.957C385.982 211.11 383.477 202.862 383.477 192.212C383.477 178.639 388.384 167.571 398.198 159.01C408.222 150.239 422.317 145.854 440.484 145.854C458.025 145.854 472.225 149.822 483.083 157.757C494.151 165.483 500.833 178.534 503.13 196.91H484.023C482.353 184.381 477.55 175.611 469.615 170.599C461.888 165.379 452.074 162.768 440.171 162.768C428.268 162.768 419.185 165.379 412.92 170.599C406.656 175.611 403.523 182.293 403.523 190.646C403.523 197.954 406.029 203.593 411.041 207.56C416.261 211.319 422.735 214.451 430.461 216.957C438.187 219.254 446.54 221.342 455.519 223.222C464.499 225.101 472.851 227.816 480.578 231.366C488.304 234.707 494.673 239.301 499.685 245.148C504.905 250.995 507.515 259.139 507.515 269.58C507.515 277.306 505.845 284.197 502.504 290.253C499.163 296.1 494.569 301.007 488.722 304.974C482.875 308.942 475.879 311.866 467.735 313.745C459.8 315.833 451.03 316.877 441.424 316.877C431.818 316.877 423.257 315.416 415.739 312.492C408.431 309.777 402.166 305.914 396.945 300.903C391.725 295.891 387.653 290.044 384.729 283.362C381.806 276.679 380.135 269.475 379.718 261.749H398.825Z" fill="white"/>
<path d="M601.484 313.118C599.187 313.536 596.159 314.267 592.401 315.311C588.642 316.355 584.465 316.877 579.871 316.877C570.475 316.877 563.27 314.58 558.259 309.986C553.456 305.183 551.054 296.726 551.054 284.615V165.901H528.189V150.239H551.054V105.134H569.848V150.239H600.231V165.901H569.848V277.097C569.848 281.065 569.953 284.51 570.161 287.434C570.37 290.357 570.997 292.759 572.041 294.638C573.085 296.517 574.651 297.875 576.739 298.71C579.036 299.545 582.168 299.963 586.136 299.963C588.642 299.963 591.148 299.754 593.654 299.336C596.368 298.919 598.978 298.397 601.484 297.77V313.118Z" fill="white"/>
<path d="M741.598 150.239H760.392V312.492H741.598V289.939C739.092 292.863 736.273 295.891 733.141 299.023C730.009 302.155 726.354 305.079 722.178 307.794C718.21 310.299 713.512 312.388 708.083 314.058C702.653 315.938 696.389 316.877 689.289 316.877C678.43 316.877 669.347 315.416 662.038 312.492C654.729 309.36 648.778 305.079 644.184 299.65C639.799 294.22 636.562 287.956 634.474 280.856C632.594 273.547 631.655 265.612 631.655 257.05V150.239H650.448V256.737C650.448 270.728 653.685 281.482 660.159 289C666.632 296.309 677.282 299.963 692.108 299.963C699.834 299.963 706.725 298.501 712.781 295.578C719.046 292.445 724.266 288.165 728.443 282.735C732.619 277.306 735.856 270.833 738.153 263.315C740.45 255.798 741.598 247.549 741.598 238.57V150.239Z" fill="white"/>
<path d="M930.997 230.739C930.997 221.551 929.744 212.885 927.238 204.741C924.732 196.388 921.078 189.184 916.275 183.128C911.681 176.864 905.938 171.956 899.047 168.406C892.365 164.648 884.743 162.768 876.182 162.768C866.367 162.768 857.91 164.752 850.81 168.72C843.71 172.478 837.863 177.699 833.269 184.381C828.675 191.063 825.334 198.894 823.246 207.873C821.158 216.644 820.322 226.145 820.74 236.377C820.74 246.609 822.097 255.693 824.812 263.628C827.735 271.355 831.703 277.932 836.715 283.362C841.726 288.791 847.573 292.967 854.255 295.891C860.938 298.606 868.246 299.963 876.182 299.963C884.952 299.963 892.783 298.188 899.674 294.638C906.565 291.088 912.307 286.285 916.901 280.229C921.495 273.965 924.941 266.656 927.238 258.303C929.744 249.742 930.997 240.554 930.997 230.739ZM930.997 86.9668H949.791V312.492H930.997V283.988H930.37C927.656 289.417 924.106 294.22 919.72 298.397C915.544 302.364 910.846 305.705 905.625 308.42C900.614 311.135 895.393 313.223 889.964 314.685C884.534 316.146 879.209 316.877 873.989 316.877C860.833 316.877 849.661 314.685 840.473 310.299C831.285 305.914 823.664 299.963 817.608 292.445C811.761 284.719 807.48 275.635 804.765 265.194C802.051 254.753 800.693 243.582 800.693 231.679C800.693 220.403 802.155 209.544 805.079 199.103C808.002 188.662 812.387 179.578 818.234 171.852C824.29 163.917 831.807 157.652 840.787 153.058C849.975 148.255 860.729 145.854 873.049 145.854C884.534 145.854 895.497 148.464 905.939 153.685C916.588 158.696 924.941 166.214 930.997 176.237V86.9668Z" fill="white"/>
<path d="M994.504 312.492V150.239H1013.3V312.492H994.504ZM993.564 114.844V86.9668H1014.24V114.844H993.564Z" fill="white"/>
<path d="M1125.65 316.877C1115.21 316.668 1105.39 314.789 1096.2 311.239C1087.22 307.689 1079.29 302.364 1072.4 295.264C1065.72 288.165 1060.39 279.29 1056.42 268.64C1052.46 257.99 1050.47 245.565 1050.47 231.366C1050.47 219.463 1052.04 208.395 1055.17 198.163C1058.3 187.722 1063 178.639 1069.27 170.912C1075.53 163.186 1083.36 157.13 1092.76 152.745C1102.15 148.151 1113.12 145.854 1125.65 145.854C1138.38 145.854 1149.45 148.151 1158.85 152.745C1168.25 157.13 1176.08 163.186 1182.34 170.912C1188.61 178.43 1193.2 187.409 1196.12 197.85C1199.26 208.291 1200.82 219.463 1200.82 231.366C1200.82 244.312 1199.05 256.006 1195.5 266.447C1191.95 276.888 1186.83 285.868 1180.15 293.385C1173.68 300.903 1165.74 306.75 1156.34 310.926C1147.16 314.893 1136.92 316.877 1125.65 316.877ZM1180.78 231.366C1180.78 221.76 1179.73 212.781 1177.64 204.428C1175.55 196.075 1172.32 188.871 1167.93 182.815C1163.55 176.55 1157.91 171.643 1151.02 168.093C1144.13 164.543 1135.67 162.768 1125.65 162.768C1115.83 162.768 1107.38 164.752 1100.28 168.72C1093.38 172.478 1087.75 177.595 1083.36 184.068C1078.98 190.333 1075.74 197.641 1073.65 205.994C1071.56 214.138 1070.52 222.595 1070.52 231.366C1070.52 241.389 1071.67 250.681 1073.96 259.243C1076.47 267.596 1080.02 274.8 1084.61 280.856C1089.21 286.912 1094.95 291.61 1101.84 294.951C1108.73 298.292 1116.67 299.963 1125.65 299.963C1135.46 299.963 1143.81 298.083 1150.71 294.325C1157.81 290.357 1163.55 285.137 1167.93 278.663C1172.32 272.19 1175.55 264.881 1177.64 256.737C1179.73 248.593 1180.78 240.136 1180.78 231.366Z" fill="white"/>
<path d="M340.087 386.911L91.3463 155.77L154.928 95.7034L371.877 356.886L340.087 386.911Z" fill="#B8B8B8"/>
<path d="M20.9145 129.05C-8.12139 98.3573 -6.75723 49.9275 23.966 20.9093C54.6788 -8.11335 103.141 -6.75487 132.183 23.9369C143.346 35.7407 150.009 50.1802 152.244 65.1252L60.9376 151.382C46.1299 148.317 32.0773 140.854 20.9145 129.05Z" fill="#B8B8B8"/>
<path d="M184.56 549.401C208.352 549.401 227.13 544.643 240.896 535.126C254.831 525.609 261.799 508.445 261.799 483.633C261.799 456.952 252.112 438.769 232.738 429.082C222.372 423.983 208.522 421.434 191.187 421.434H67.299V549.401H184.56ZM16.5711 377.844H189.913C218.463 377.844 242 382.008 260.524 390.335C295.702 406.309 313.291 435.795 313.291 478.79C313.291 501.223 308.618 519.576 299.271 533.852C290.094 548.127 277.179 559.598 260.524 568.265C275.139 574.213 286.101 582.03 293.408 591.717C300.886 601.404 305.049 617.124 305.899 638.876L307.683 689.094C308.193 703.37 309.383 713.991 311.252 720.959C314.311 732.855 319.749 740.502 327.567 743.901V752.313H265.368C263.668 749.084 262.309 744.921 261.289 739.822C260.269 734.724 259.42 724.867 258.74 710.252L255.681 647.798C254.491 623.327 245.399 606.927 228.405 598.6C218.718 594.011 203.508 591.717 182.775 591.717H67.299V752.313H16.5711V377.844Z" fill="#FF00F7"/>
<path d="M416.787 679.663C416.787 692.918 421.63 703.37 431.317 711.017C441.004 718.664 452.475 722.488 465.73 722.488C481.875 722.488 497.51 718.75 512.634 711.272C538.126 698.866 550.872 678.558 550.872 650.347V613.385C545.264 616.954 538.041 619.928 529.204 622.307C520.367 624.686 511.7 626.386 503.203 627.405L475.417 630.974C458.763 633.183 446.272 636.667 437.945 641.425C423.839 649.413 416.787 662.159 416.787 679.663ZM527.929 586.874C538.466 585.514 545.518 581.096 549.087 573.618C551.127 569.54 552.146 563.677 552.146 556.029C552.146 540.394 546.538 529.093 535.322 522.126C524.276 514.988 508.386 511.419 487.653 511.419C463.691 511.419 446.697 517.877 436.67 530.793C431.062 537.93 427.408 548.552 425.709 562.657H382.883C383.733 529.008 394.609 505.641 415.512 492.555C436.585 479.3 460.972 472.672 488.673 472.672C520.792 472.672 546.878 478.79 566.931 491.026C586.815 503.262 596.756 522.295 596.756 548.127V705.409C596.756 710.167 597.691 713.991 599.56 716.88C601.6 719.769 605.763 721.214 612.051 721.214C614.09 721.214 616.385 721.129 618.934 720.959C621.483 720.619 624.202 720.194 627.091 719.684V753.588C619.953 755.627 614.515 756.902 610.776 757.411C607.038 757.921 601.939 758.176 595.482 758.176C579.677 758.176 568.206 752.568 561.068 741.352C557.329 735.404 554.695 726.992 553.166 716.115C543.819 728.351 530.394 738.973 512.889 747.98C495.385 756.987 476.097 761.49 455.024 761.49C429.702 761.49 408.969 753.843 392.825 738.548C376.85 723.083 368.863 703.795 368.863 680.682C368.863 655.361 376.765 635.732 392.57 621.797C408.375 607.862 429.108 599.28 454.769 596.051L527.929 586.874Z" fill="#FF00F7"/>
<path d="M672.211 480.575H718.86V752.313H672.211V480.575ZM672.211 377.844H718.86V429.847H672.211V377.844Z" fill="#FF00F7"/>
<path d="M788.452 479.3H832.042V518.047C844.958 502.072 858.638 490.601 873.083 483.633C887.529 476.666 903.588 473.182 921.262 473.182C960.009 473.182 986.181 486.692 999.776 513.713C1007.25 528.498 1010.99 549.656 1010.99 577.187V752.313H964.343V580.246C964.343 563.592 961.879 550.166 956.95 539.97C948.793 522.975 934.008 514.478 912.595 514.478C901.719 514.478 892.797 515.583 885.829 517.792C873.253 521.531 862.207 529.008 852.69 540.224C845.043 549.231 840.03 558.578 837.65 568.265C835.441 577.782 834.336 591.462 834.336 609.306V752.313H788.452V479.3Z" fill="#FF00F7"/>
<path d="M1192.75 473.182C1212.12 473.182 1230.9 477.77 1249.08 486.947C1267.27 495.954 1281.12 507.68 1290.63 522.126C1299.81 535.891 1305.93 551.951 1308.99 570.304C1311.71 582.88 1313.07 602.933 1313.07 630.464H1112.96C1113.81 658.165 1120.35 680.427 1132.59 697.252C1144.82 713.906 1163.77 722.233 1189.43 722.233C1213.39 722.233 1232.51 714.331 1246.79 698.526C1254.95 689.349 1260.72 678.728 1264.12 666.662H1309.24C1308.05 676.689 1304.06 687.905 1297.26 700.311C1290.63 712.547 1283.16 722.573 1274.83 730.391C1260.89 743.986 1243.64 753.163 1223.08 757.921C1212.03 760.64 1199.54 762 1185.61 762C1151.62 762 1122.81 749.679 1099.19 725.037C1075.57 700.226 1063.76 665.557 1063.76 621.032C1063.76 577.187 1075.66 541.584 1099.45 514.223C1123.24 486.862 1154.34 473.182 1192.75 473.182ZM1265.91 594.011C1264.04 574.128 1259.7 558.238 1252.91 546.342C1240.33 524.25 1219.34 513.204 1189.94 513.204C1168.87 513.204 1151.2 520.851 1136.92 536.146C1122.64 551.271 1115.08 570.559 1114.23 594.011H1265.91Z" fill="#FF00F7"/>
</svg>
